<svg width="17" height="16" viewBox="0 0 17 16" fill="none" xmlns="http://www.w3.org/2000/svg">
<path d="M8.6737 3.16505C8.62718 3.12054 8.56527 3.0957 8.50089 3.0957C8.4365 3.0957 8.3746 3.12054 8.32808 3.16505L2.57495 8.66099C2.55052 8.68436 2.53108 8.71244 2.51781 8.74354C2.50455 8.77464 2.49773 8.80811 2.49776 8.84192L2.49683 14C2.49683 14.2653 2.60218 14.5196 2.78972 14.7072C2.97726 14.8947 3.23161 15 3.49683 15H6.49995C6.63256 15 6.75974 14.9474 6.8535 14.8536C6.94727 14.7598 6.99995 14.6327 6.99995 14.5V10.25C6.99995 10.1837 7.02629 10.1202 7.07317 10.0733C7.12006 10.0264 7.18365 10 7.24995 10H9.74995C9.81626 10 9.87984 10.0264 9.92673 10.0733C9.97361 10.1202 9.99995 10.1837 9.99995 10.25V14.5C9.99995 14.6327 10.0526 14.7598 10.1464 14.8536C10.2402 14.9474 10.3673 15 10.5 15H13.5018C13.767 15 14.0214 14.8947 14.2089 14.7072C14.3965 14.5196 14.5018 14.2653 14.5018 14V8.84192C14.5019 8.80811 14.495 8.77464 14.4818 8.74354C14.4685 8.71244 14.4491 8.68436 14.4246 8.66099L8.6737 3.16505Z" fill="black"/>
<path d="M15.8409 7.62969L13.5034 5.39344V2C13.5034 1.86739 13.4508 1.74021 13.357 1.64645C13.2632 1.55268 13.1361 1.5 13.0034 1.5H11.5034C11.3708 1.5 11.2437 1.55268 11.1499 1.64645C11.0561 1.74021 11.0034 1.86739 11.0034 2V3L9.19345 1.26937C9.02407 1.09812 8.7722 1 8.50001 1C8.22876 1 7.97751 1.09813 7.80814 1.26969L1.16126 7.62906C0.966887 7.81656 0.942512 8.125 1.11939 8.32812C1.1638 8.3794 1.21819 8.42109 1.27923 8.45068C1.34027 8.48027 1.4067 8.49712 1.47446 8.50022C1.54223 8.50332 1.60991 8.4926 1.6734 8.4687C1.73689 8.44481 1.79485 8.40825 1.84376 8.36125L8.32814 2.165C8.37466 2.12049 8.43656 2.09565 8.50095 2.09565C8.56533 2.09565 8.62724 2.12049 8.67376 2.165L15.1588 8.36125C15.2543 8.45286 15.3822 8.50285 15.5146 8.50028C15.6469 8.4977 15.7728 8.44276 15.8647 8.3475C16.0566 8.14875 16.0406 7.82062 15.8409 7.62969Z" fill="black"/>
</svg>
