<svg width="18" height="20" viewBox="0 0 18 20" fill="none" xmlns="http://www.w3.org/2000/svg">
<path d="M10.6559 9.6875C10.6866 9.68753 10.7167 9.67846 10.7424 9.66144C10.768 9.64442 10.7881 9.6202 10.8 9.59183C10.812 9.56345 10.8152 9.53219 10.8095 9.50195C10.8037 9.47171 10.7891 9.44386 10.7676 9.42187L7.70508 6.30781C7.68332 6.28571 7.65547 6.27059 7.62508 6.26437C7.59469 6.25815 7.56314 6.26112 7.53445 6.27289C7.50575 6.28466 7.48121 6.30471 7.46395 6.33047C7.44668 6.35624 7.43747 6.38656 7.4375 6.41758V9.21875C7.4375 9.34307 7.48689 9.4623 7.57479 9.55021C7.6627 9.63811 7.78193 9.6875 7.90625 9.6875H10.6559Z" fill="#F28F09"/>
<path d="M6.69531 10.4297C6.53487 10.2714 6.40738 10.0829 6.32022 9.87504C6.23306 9.66719 6.18795 9.44413 6.1875 9.21875V5.625H3.375C2.71256 5.62696 2.07781 5.89098 1.6094 6.3594C1.14098 6.82781 0.876958 7.46256 0.875 8.125V16.875C0.875 17.538 1.13839 18.1739 1.60723 18.6428C2.07607 19.1116 2.71196 19.375 3.375 19.375H9C9.66304 19.375 10.2989 19.1116 10.7678 18.6428C11.2366 18.1739 11.5 17.538 11.5 16.875V10.9375H7.90625C7.68085 10.9372 7.45775 10.8921 7.24989 10.805C7.04202 10.7178 6.85352 10.5902 6.69531 10.4297Z" fill="#F28F09"/>
<path d="M13.5312 4.6875H16.2809C16.3116 4.68753 16.3417 4.67846 16.3674 4.66144C16.393 4.64442 16.4131 4.6202 16.425 4.59183C16.437 4.56345 16.4402 4.53219 16.4345 4.50195C16.4287 4.47171 16.4141 4.44386 16.3926 4.42187L13.3301 1.30781C13.3083 1.28571 13.2805 1.27059 13.2501 1.26437C13.2197 1.25815 13.1881 1.26112 13.1594 1.27289C13.1308 1.28466 13.1062 1.30471 13.0889 1.33047C13.0717 1.35624 13.0625 1.38656 13.0625 1.41758V4.21875C13.0625 4.34307 13.1119 4.4623 13.1998 4.55021C13.2877 4.63811 13.4069 4.6875 13.5312 4.6875Z" fill="#F28F09"/>
<path d="M13.5312 5.9375C13.0765 5.93403 12.6413 5.75183 12.3197 5.43025C11.9982 5.10867 11.816 4.67352 11.8125 4.21875V0.625H7.59375C6.97237 0.625724 6.37665 0.872886 5.93727 1.31227C5.49789 1.75165 5.25072 2.34737 5.25 2.96875V4.375H6.89531C7.10532 4.37584 7.31309 4.41817 7.50669 4.49955C7.70029 4.58093 7.8759 4.69976 8.02344 4.84922L12.2875 9.18516C12.585 9.48699 12.7511 9.89418 12.7496 10.318V15.625H14.8219C16.0918 15.625 17.1246 14.5734 17.1246 13.2812V5.9375H13.5312Z" fill="#F28F09"/>
</svg>
