<svg width="24" height="20" viewBox="0 0 24 20" fill="none" xmlns="http://www.w3.org/2000/svg">
<path fill-rule="evenodd" clip-rule="evenodd" d="M8.00497 1.7614C9.24384 1.16592 10.6011 0.857517 11.9756 0.859137C17.0268 0.859379 21.1252 4.94628 21.1252 9.98992V10.3139L21.9697 9.46943C22.2626 9.17654 22.7374 9.17654 23.0303 9.46943C23.3232 9.76233 23.3232 10.2372 23.0303 10.5301L20.9678 12.5926C20.6795 12.8809 20.2137 12.8861 19.9191 12.6042L17.7628 10.5417C17.4635 10.2554 17.453 9.78067 17.7393 9.48135C18.0256 9.18202 18.5003 9.17147 18.7997 9.45778L19.6252 10.2474V9.98992C19.6252 5.77777 16.2013 2.35914 11.9752 2.35914L11.9742 2.35914C10.8251 2.35772 9.69048 2.61552 8.65479 3.11334C7.6191 3.61115 6.70904 4.33617 5.99235 5.2344C5.73401 5.55818 5.26211 5.61123 4.93833 5.35289C4.61455 5.09455 4.5615 4.62265 4.81984 4.29887C5.67723 3.2243 6.76595 2.35695 8.00497 1.7614ZM3.03217 7.40693C3.32047 7.11863 3.78628 7.11345 4.08092 7.39528L6.23717 9.45778C6.5365 9.74409 6.54705 10.2189 6.26073 10.5182C5.97442 10.8175 5.49966 10.8281 5.20033 10.5417L4.35 9.72838V10.0073C4.35 14.2246 7.77199 17.6403 11.9999 17.6404C13.1463 17.6386 14.2779 17.3811 15.3122 16.8867C16.3468 16.3921 17.2581 15.673 17.9795 14.7816C18.2401 14.4597 18.7124 14.4099 19.0344 14.6705C19.3563 14.9311 19.4061 15.4034 19.1455 15.7254C18.2836 16.7902 17.195 17.6493 15.9591 18.24C14.7231 18.8308 13.371 19.1384 12.0011 19.1404L12 19.1404C6.94669 19.1404 2.85 15.0561 2.85 10.0073V9.71042L2.03033 10.5301C1.73744 10.823 1.26256 10.823 0.96967 10.5301C0.676777 10.2372 0.676777 9.76233 0.96967 9.46943L3.03217 7.40693Z" fill="#1F1F1F"/>
</svg>
