<svg width="16" height="19" viewBox="0 0 16 19" fill="none" xmlns="http://www.w3.org/2000/svg">
<path d="M14.875 3.25H11.125V2.3125C11.125 1.8981 10.9604 1.50067 10.6674 1.20765C10.3743 0.91462 9.9769 0.75 9.5625 0.75H6.4375C6.0231 0.75 5.62567 0.91462 5.33265 1.20765C5.03962 1.50067 4.875 1.8981 4.875 2.3125V3.25H1.125C0.95924 3.25 0.800269 3.31585 0.683058 3.43306C0.565848 3.55027 0.5 3.70924 0.5 3.875C0.5 4.04076 0.565848 4.19973 0.683058 4.31694C0.800269 4.43415 0.95924 4.5 1.125 4.5H1.78906L2.53125 16.4109C2.58672 17.4598 3.39062 18.25 4.40625 18.25H11.5938C12.6145 18.25 13.4023 17.4773 13.4688 16.4141L14.2109 4.5H14.875C15.0408 4.5 15.1997 4.43415 15.3169 4.31694C15.4342 4.19973 15.5 4.04076 15.5 3.875C15.5 3.70924 15.4342 3.55027 15.3169 3.43306C15.1997 3.31585 15.0408 3.25 14.875 3.25ZM5.52227 15.75H5.5C5.33803 15.7501 5.18234 15.6873 5.06575 15.5749C4.94916 15.4624 4.88077 15.3091 4.875 15.1473L4.5625 6.39727C4.55659 6.23151 4.61678 6.07019 4.72981 5.9488C4.84285 5.82742 4.99947 5.75591 5.16523 5.75C5.33099 5.74409 5.49231 5.80428 5.6137 5.91731C5.73508 6.03035 5.80659 6.18697 5.8125 6.35273L6.125 15.1027C6.12798 15.1848 6.11474 15.2667 6.08605 15.3437C6.05737 15.4206 6.01378 15.4912 5.95781 15.5513C5.90183 15.6114 5.83455 15.6599 5.75981 15.694C5.68508 15.7281 5.60436 15.7471 5.52227 15.75ZM8.625 15.125C8.625 15.2908 8.55915 15.4497 8.44194 15.5669C8.32473 15.6842 8.16576 15.75 8 15.75C7.83424 15.75 7.67527 15.6842 7.55806 15.5669C7.44085 15.4497 7.375 15.2908 7.375 15.125V6.375C7.375 6.20924 7.44085 6.05027 7.55806 5.93306C7.67527 5.81585 7.83424 5.75 8 5.75C8.16576 5.75 8.32473 5.81585 8.44194 5.93306C8.55915 6.05027 8.625 6.20924 8.625 6.375V15.125ZM9.875 3.25H6.125V2.3125C6.12453 2.27133 6.13229 2.23048 6.14783 2.19236C6.16337 2.15423 6.18637 2.11959 6.21548 2.09048C6.24459 2.06137 6.27923 2.03837 6.31736 2.02283C6.35548 2.00729 6.39633 1.99953 6.4375 2H9.5625C9.60367 1.99953 9.64452 2.00729 9.68264 2.02283C9.72077 2.03837 9.75541 2.06137 9.78452 2.09048C9.81363 2.11959 9.83663 2.15423 9.85217 2.19236C9.86771 2.23048 9.87547 2.27133 9.875 2.3125V3.25ZM11.125 15.1473C11.1192 15.3091 11.0508 15.4624 10.9343 15.5749C10.8177 15.6873 10.662 15.7501 10.5 15.75H10.4773C10.3953 15.7471 10.3146 15.728 10.2399 15.6939C10.1652 15.6598 10.098 15.6113 10.0421 15.5512C9.98612 15.4911 9.94257 15.4205 9.91391 15.3436C9.88524 15.2666 9.87202 15.1848 9.875 15.1027L10.1875 6.35273C10.1904 6.27066 10.2095 6.18996 10.2436 6.11525C10.2777 6.04054 10.3262 5.97328 10.3863 5.91731C10.4464 5.86134 10.5169 5.81776 10.5939 5.78905C10.6708 5.76035 10.7527 5.74708 10.8348 5.75C10.9168 5.75292 10.9975 5.77199 11.0722 5.8061C11.147 5.84021 11.2142 5.8887 11.2702 5.9488C11.3262 6.00891 11.3697 6.07945 11.3984 6.15639C11.4272 6.23334 11.4404 6.31519 11.4375 6.39727L11.125 15.1473Z" fill="#1F1F1F"/>
</svg>
