<svg width="23" height="22" viewBox="0 0 23 22" fill="none" xmlns="http://www.w3.org/2000/svg">
<path d="M11.5 1C5.977 1 1.5 5.477 1.5 11C1.5 16.523 5.977 21 11.5 21C17.023 21 21.5 16.523 21.5 11C21.5 5.477 17.023 1 11.5 1Z" stroke="black" stroke-width="1.5" stroke-linecap="round" stroke-linejoin="round"/>
<path d="M3.771 17.346C3.771 17.346 6 14.5 11.5 14.5C17 14.5 19.23 17.346 19.23 17.346M11.5 11C12.2956 11 13.0587 10.6839 13.6213 10.1213C14.1839 9.55871 14.5 8.79565 14.5 8C14.5 7.20435 14.1839 6.44129 13.6213 5.87868C13.0587 5.31607 12.2956 5 11.5 5C10.7043 5 9.94128 5.31607 9.37868 5.87868C8.81607 6.44129 8.5 7.20435 8.5 8C8.5 8.79565 8.81607 9.55871 9.37868 10.1213C9.94128 10.6839 10.7043 11 11.5 11Z" stroke="black" stroke-width="1.5" stroke-linecap="round" stroke-linejoin="round"/>
</svg>
