<svg width="21" height="20" viewBox="0 0 21 20" fill="none" xmlns="http://www.w3.org/2000/svg">
<path d="M10.5 0.25C5.12391 0.25 0.75 4.62391 0.75 10C0.75 15.3761 5.12391 19.75 10.5 19.75C15.8761 19.75 20.25 15.3761 20.25 10C20.25 4.62391 15.8761 0.25 10.5 0.25ZM8.14594 5.72594C8.73984 5.09641 9.57563 4.75 10.5 4.75C11.4244 4.75 12.2527 5.09875 12.8489 5.73156C13.4531 6.37281 13.747 7.23437 13.6777 8.16062C13.5389 10 12.1139 11.5 10.5 11.5C8.88609 11.5 7.45828 10 7.32234 8.16016C7.25344 7.22641 7.54688 6.36203 8.14594 5.72594ZM10.5 18.25C9.39866 18.2507 8.30838 18.0303 7.29382 17.6018C6.27927 17.1732 5.36109 16.5453 4.59375 15.7553C5.03323 15.1286 5.5932 14.5957 6.24094 14.1878C7.43578 13.4219 8.94797 13 10.5 13C12.052 13 13.5642 13.4219 14.7577 14.1878C15.4059 14.5955 15.9664 15.1284 16.4062 15.7553C15.639 16.5454 14.7208 17.1734 13.7062 17.6019C12.6917 18.0304 11.6014 18.2508 10.5 18.25Z" fill="#1F1F1F"/>
</svg>
